<svg id="kettly_happy" viewBox="-23 0 512 512.001" xmlns="http://www.w3.org/2000/svg">
    <path d="m156.335938 353.363281v12.542969c0 4.144531 3.359374 7.5 7.5 7.5 4.140624 0 7.5-3.355469 7.5-7.5v-12.542969c0-4.140625-3.359376-7.5-7.5-7.5-4.140626 0-7.5 3.359375-7.5 7.5zm0 0" />
    <path d="m294.957031 353.363281v12.542969c0 4.144531 3.359375 7.5 7.5 7.5s7.5-3.355469 7.5-7.5v-12.542969c0-4.140625-3.359375-7.5-7.5-7.5s-7.5 3.359375-7.5 7.5zm0 0" />
    <path d="m244.605469 360.101562c-2.78125 3.179688-6.957031 5.003907-11.457031 5.003907-4.503907 0-8.683594-1.824219-11.460938-5.003907-2.726562-3.121093-7.464844-3.4375-10.585938-.710937-3.117187 2.722656-3.433593 7.460937-.710937 10.582031 5.632813 6.4375 13.925781 10.132813 22.757813 10.132813 8.828124 0 17.125-3.695313 22.75-10.132813 2.726562-3.117187 2.410156-7.855468-.710938-10.582031-3.117188-2.726563-7.855469-2.410156-10.582031.710937zm0 0" />
    <path d="m136.691406 0c-15.914062 0-31.53125 2.71875-46.417968 8.078125-3.898438 1.402344-5.921876 5.699219-4.519532 9.597656 1.40625 3.894531 5.703125 5.917969 9.597656 4.515625 13.253907-4.773437 27.164063-7.191406 41.339844-7.191406h192.90625c36.929688 0 71.421875 16.472656 94.640625 45.191406 17.441407 21.578125 27.050781 48.746094 27.050781 76.5 0 24.613282-3.582031 44.902344-11.46875 64.097656-13.789062-18.480468-31.707031-33.707031-51.800781-44.949218-.199219-.113282-.398437-.222656-.601562-.335938-.019531-.011718-.039063-.023437-.074219-.039062.773438-5.617188 1.136719-11.71875 1.136719-18.777344 0-32.082031-26.867188-58.882812-58.882813-58.882812 0 0-192.777344 0-192.90625 0-32 0-58.882812 26.886718-58.882812 58.882812 0 7.054688.367187 13.15625 1.128906 18.777344-.035156.019531-.070312.042968-.109375.0625-20.4375 11.097656-38.453125 26.609375-52.355469 45.261718-7.886718-19.199218-11.472656-39.484374-11.472656-64.101562 0-27.75 9.609375-54.917969 27.054688-76.496094 7.679687-9.5 16.679687-17.757812 26.753906-24.546875 3.4375-2.3125 4.34375-6.972656 2.03125-10.410156-2.316406-3.433594-6.976563-4.34375-10.414063-2.03125-11.3125 7.625-21.417969 16.894531-30.035156 27.558594-19.597656 24.238281-30.390625 54.753906-30.390625 85.925781 0 32.179688 5.71875 57.675781 18.539062 82.675781 9.640626 18.769531 23.085938 36.625 36.035157 53.300781l30.535156 39.355469c-1.367187 3.226563-2.640625 6.507813-3.804687 9.851563l-28.089844 80.667968c-3.042969 8.730469-4.582032 17.84375-4.582032 27.089844 0 45.421875 36.949219 82.371094 82.367188 82.371094h204.289062c17.234376 0 33.753907-5.285156 47.777344-15.289062 3.375-2.40625 4.15625-7.089844 1.75-10.464844-2.402344-3.371094-7.089844-4.152344-10.460937-1.75-11.464844 8.179687-24.972657 12.503906-39.066407 12.503906h-204.285156c-37.148437 0-67.371094-30.222656-67.371094-67.371094 0-7.5625 1.261719-15.015625 3.746094-22.15625l28.09375-80.664062c7.078125-20.335938 18.933594-39.394532 34.230469-54.75 26.800781-26.964844 63.761719-43.089844 103.441406-43.089844 39.679688 0 76.636719 16.121094 103.4375 43.082031 15.203125 15.292969 27.105469 34.269531 34.238281 54.757813l28.089844 80.664062c2.488282 7.140625 3.75 14.59375 3.75 22.15625 0 12.425782-3.414062 24.566406-9.867187 35.113282-2.164063 3.535156-1.050781 8.152343 2.480469 10.3125 3.535156 2.164062 8.148437 1.050781 10.3125-2.480469 7.898437-12.902344 12.074218-27.753907 12.074218-42.941407 0-9.246093-1.542968-18.363281-4.582031-27.09375l-28.09375-80.664062c-1.164063-3.34375-2.4375-6.625-3.804687-9.851562l30.535156-39.351563c12.949218-16.679687 26.394531-34.535156 36.035156-53.308594 12.820312-24.996093 18.539062-50.492187 18.539062-82.671875 0-31.171875-10.792968-61.6875-30.386718-85.925781-26.078125-32.261719-64.824219-50.765625-106.304688-50.765625zm-44.269531 296.980469-26-33.507813c-14.046875-18.101562-24.570313-32.570312-32.523437-47.15625.085937-.128906.164062-.257812.25-.382812 12.320312-18.5 28.976562-34.066406 48.214843-45.183594 5.585938 17.4375 16.554688 32.152344 33.679688 54.222656l17.988281 23.183594c-6.902344 5.40625-13.328125 11.367188-19.234375 17.789062-.011719.015626-.023437.03125-.039063.042969-8.617187 9.402344-16.171874 19.824219-22.335937 30.992188zm53.871094-57.492188-18.402344-23.710937c-20.914063-26.957032-29.78125-39.714844-33.296875-57.609375-1.21875-6.1875-1.785156-13.011719-1.785156-21.476563 0-23.933594 20.007812-43.882812 43.882812-43.882812h192.90625c23.898438 0 43.882813 19.980468 43.882813 43.882812 0 8.464844-.566407 15.289063-1.785157 21.476563-3.515624 17.894531-12.382812 30.652343-33.296874 57.605469l-18.402344 23.714843c-25.347656-16.285156-55.316406-25.519531-86.851563-25.519531-31.53125 0-61.503906 9.238281-86.851562 25.519531zm253.574219 23.984375-26 33.503906c-.058594-.101562-.121094-.207031-.175782-.308593-10.335937-18.585938-24.585937-35.320313-41.433594-48.511719l17.992188-23.1875c17.121094-22.066406 28.09375-36.785156 33.675781-54.21875-.046875.144531 5.394531 3.277344 5.882813 3.589844 16.804687 10.8125 31.488281 25.25 42.582031 41.972656-7.949219 14.589844-18.472656 29.058594-32.523437 47.160156zm0 0" />
</svg>
