<svg id="kettly_sad" viewBox="0 0 512 512" xmlns="http://www.w3.org/2000/svg">
    <path d="M179.336 353.363V365.906C179.336 370.051 182.695 373.406 186.836 373.406C190.977 373.406 194.336 370.051 194.336 365.906V353.363C194.336 349.223 190.977 345.863 186.836 345.863C182.695 345.863 179.336 349.223 179.336 353.363V353.363Z" />
    <path d="M317.957 353.363V365.906C317.957 370.051 321.316 373.406 325.457 373.406C329.598 373.406 332.957 370.051 332.957 365.906V353.363C332.957 349.223 329.598 345.863 325.457 345.863C321.316 345.863 317.957 349.223 317.957 353.363V353.363Z" />
    <path d="M244.687 377.54C247.468 374.361 251.644 372.536 256.144 372.536C260.648 372.536 264.827 374.361 267.605 377.54C270.331 380.661 275.07 380.978 278.191 378.251C281.308 375.529 281.624 370.79 278.902 367.669C273.269 361.232 264.976 357.536 256.144 357.536C247.316 357.536 239.019 361.232 233.394 367.669C230.667 370.786 230.984 375.525 234.105 378.251C237.222 380.978 241.96 380.661 244.687 377.54Z" />
    <path d="M159.691 0C143.777 0 128.16 2.71875 113.273 8.07812C109.375 9.48047 107.352 13.7773 108.754 17.6758C110.16 21.5703 114.457 23.5938 118.352 22.1914C131.605 17.418 145.516 15 159.691 15H352.598C389.527 15 424.02 31.4727 447.238 60.1914C464.68 81.7695 474.289 108.938 474.289 136.691C474.289 161.305 470.707 181.594 462.82 200.789C449.031 182.309 431.113 167.082 411.02 155.84C410.82 155.727 410.621 155.617 410.418 155.504C410.398 155.492 410.379 155.48 410.344 155.465C411.117 149.848 411.48 143.746 411.48 136.688C411.48 104.605 384.613 77.8047 352.598 77.8047C352.598 77.8047 159.82 77.8047 159.691 77.8047C127.691 77.8047 100.809 104.691 100.809 136.688C100.809 143.742 101.176 149.844 101.938 155.465C101.902 155.484 101.867 155.508 101.828 155.527C81.3906 166.625 63.375 182.137 49.4727 200.789C41.5859 181.59 38 161.305 38 136.688C38 108.938 47.6094 81.7695 65.0547 60.1914C72.7344 50.6914 81.7344 42.4336 91.8086 35.6445C95.2461 33.332 96.1523 28.6719 93.8398 25.2344C91.5234 21.8008 86.8633 20.8906 83.4258 23.2031C72.1133 30.8281 62.0078 40.0977 53.3906 50.7617C33.793 75 23 105.516 23 136.688C23 168.867 28.7188 194.363 41.5391 219.363C51.1797 238.133 64.625 255.988 77.5742 272.664L108.109 312.02C106.742 315.246 105.469 318.527 104.305 321.871L76.2148 402.539C73.1719 411.27 71.6328 420.383 71.6328 429.629C71.6328 475.051 108.582 512 154 512H358.289C375.523 512 392.043 506.715 406.066 496.711C409.441 494.305 410.223 489.621 407.816 486.246C405.414 482.875 400.727 482.094 397.355 484.496C385.891 492.676 372.383 497 358.289 497H154.004C116.855 497 86.6328 466.777 86.6328 429.629C86.6328 422.066 87.8945 414.613 90.3789 407.473L118.473 326.809C125.551 306.473 137.406 287.414 152.703 272.059C179.504 245.094 216.465 228.969 256.145 228.969C295.824 228.969 332.781 245.09 359.582 272.051C374.785 287.344 386.688 306.32 393.82 326.809L421.91 407.473C424.398 414.613 425.66 422.066 425.66 429.629C425.66 442.055 422.246 454.195 415.793 464.742C413.629 468.277 414.742 472.895 418.273 475.055C421.809 477.219 426.422 476.105 428.586 472.574C436.484 459.672 440.66 444.82 440.66 429.633C440.66 420.387 439.117 411.27 436.078 402.539L407.984 321.875C406.82 318.531 405.547 315.25 404.18 312.023L434.715 272.672C447.664 255.992 461.109 238.137 470.75 219.363C483.57 194.367 489.289 168.871 489.289 136.691C489.289 105.52 478.496 75.0039 458.902 50.7656C432.824 18.5039 394.078 0 352.598 0L159.691 0ZM115.422 296.98L89.4219 263.473C75.375 245.371 64.8516 230.902 56.8984 216.316C56.9844 216.188 57.0625 216.059 57.1484 215.934C69.4687 197.434 86.125 181.867 105.363 170.75C110.949 188.188 121.918 202.902 139.043 224.973L157.031 248.156C150.129 253.562 143.703 259.523 137.797 265.945C137.785 265.961 137.773 265.977 137.758 265.988C129.141 275.391 121.586 285.812 115.422 296.98V296.98ZM169.293 239.488L150.891 215.777C129.977 188.82 121.109 176.062 117.594 158.168C116.375 151.98 115.809 145.156 115.809 136.691C115.809 112.758 135.816 92.8086 159.691 92.8086H352.598C376.496 92.8086 396.48 112.789 396.48 136.691C396.48 145.156 395.914 151.98 394.695 158.168C391.18 176.062 382.312 188.82 361.398 215.773L342.996 239.488C317.648 223.203 287.68 213.969 256.145 213.969C224.613 213.969 194.641 223.207 169.293 239.488V239.488ZM422.867 263.473L396.867 296.977C396.809 296.875 396.746 296.77 396.691 296.668C386.355 278.082 372.105 261.348 355.258 248.156L373.25 224.969C390.371 202.902 401.344 188.184 406.926 170.75C406.879 170.895 412.32 174.027 412.809 174.34C429.613 185.152 444.297 199.59 455.391 216.312C447.441 230.902 436.918 245.371 422.867 263.473V263.473Z" />
</svg>
